<svg id="Layer_1" data-name="Layer 1" xmlns="http://www.w3.org/2000/svg" viewBox="0 0 443.83 399.72"><defs><style>.cls-1{fill:#be2438;}.cls-2{fill:#bf2a3c;}.cls-3{fill:#bf283b;}.cls-4{fill:#be2338;}.cls-5{fill:#bf273b;}.cls-6{fill:#c33a48;}.cls-7{fill:#b92125;}.cls-8{fill:#bb212c;}.cls-9{fill:#bc212f;}.cls-10{fill:#fcf2f2;}.cls-11{fill:#fbf0f0;}.cls-12{fill:#fcf5f5;}.cls-13{fill:#ba2128;}.cls-14{fill:#c02a3c;}</style></defs><path class="cls-1" d="M272.13,10.61c51.5,6.06,99.75,20.12,137.5,58.24,31.51,31.83,32.31,73.77,2.18,106.92-25.68,28.24-59.16,43.34-95.33,52.28-71.73,17.72-142.67,15.51-210.35-16C86.5,202.9,67.84,188.9,52.81,173.22c-29-30.22-27.43-70.7.8-101.81,26.29-29,60.65-43.72,97.51-53.3,13.55-3.53,27.64-4.93,41.49-7.3,19,.73,38.09,1.75,57.14,2C257.2,13,264.67,11.41,272.13,10.61ZM242.25,157.28c.78,1.46,1.5,2.18,1.51,2.91q.24,15.41.3,30.81c0,6.47-1.15,13.3,9.05,13.06,9.09-.21,15-2.75,13.93-13.35-.48-4.67.16-9.48-.55-14.1-1.51-9.77.52-16,11.58-18.82,9.67-2.43,10.23-10.29,2.25-16.84-15.06-12.36-14.88-17.72-.3-30.48,3.45-3,7.53-8.66,6.81-12.18s-7.14-5.8-11-8.76c-3.33-2.58-6.53-5.34-9.79-8,3.52-3.08,7-8.66,10.58-8.77C287.23,72.4,288.91,64.26,289,58c.06-3.77-6.39-9.63-11-11.15C260.25,41,242.21,43.28,225.26,50c-7.2,2.85-12.85,9.6-19.21,14.58,7.17,3.1,14.35,6.15,21.5,9.3,3.86,1.7,9.51,2.56,11.12,5.54,4.89,9.09-1.31,12.6-9.25,15.28-9.12,3.07-17.86,7.24-29.58,12.11C210.35,115.08,215,124,226.4,117c2.26-1.39,9.13,1.42,11.35,4.27,1.69,2.15.67,9.78-1.38,10.92-7.92,4.38-16.49,8.36-25.29,10.15s-18.36,11.84-16.17,21.43c2.43,10.57,11.29,8.05,17.79,6C222.59,166.65,231.92,161.75,242.25,157.28ZM349.4,134.64c10.8,3.67,19.54-4.69,23.55-16,4.89-13.82,7.55-28.69,9-43.32.39-4-7-12.34-11-12.44a355.37,355.37,0,0,0-57.06,2.65c-5,.68-11.82,9-12.85,14.73-2.5,13.77-2.13,28.07-2.8,42.16-.43,9,3.09,13.21,13,12.46C322.66,134,334.26,134.64,349.4,134.64ZM120.92,74.29c-19.74,2.86-36.59,5.06-53.31,8-2.55.45-5.62,3.82-6.6,6.52-7.74,21.28-2.59,28,20.24,27.2,3.41-.13,7,.19,10.2-.73,19.87-5.7,39.22-4.49,59.24.72,6.75,1.75,17.22-2.14,22.75-7.08,4.49-4,5.49-13.52,5.16-20.46-.11-2.23-9.24-4.76-14.51-5.81-5.79-1.14-12.06.07-17.82-1.17C136.86,79.43,127.69,76.26,120.92,74.29Z" transform="translate(-11.42 -10.61)"/><path class="cls-2" d="M251.76,383.26v-97h27.05V343c0,8.15-.78,16.4.34,24.39.59,4.23,4.5,8,6.91,12,3-4,8.42-7.84,8.57-11.93.86-22.25.42-44.56.43-66.84V286.1h28c0,17.88,0,35.33,0,52.78,0,10.72-.43,21.48.51,32.11.27,3,4.66,7.73,7.3,7.82s6.84-3.93,8.2-7.08c1.6-3.69,1.14-8.38,1.15-12.64.09-23.94,0-47.88,0-72.73h27c0,31.94,1.93,64.1-.6,95.9-2.12,26.8-33.45,36-57.81,19.3-23.6,17.47-56.09,5.27-57-18.2q0-46.12,0-92.27Q251.76,337.17,251.76,383.26Z" transform="translate(-11.42 -10.61)"/><path class="cls-3" d="M383.51,314.28c7.81-21.77,21.47-31.58,39.69-28.51,19.32,3.27,31.86,18.9,32,40.35.15,27,0,54,0,82H428.05V367.7H409v40.6H382.82V319.06l1.32,3.28,1.49-.44C384.92,319.36,384.22,316.82,383.51,314.28Zm46.69,22.36c-2.78-8.08-4.67-14.9-7.7-21.16-.53-1.1-8-.84-8.6.45-2.83,6.28-4.39,13.13-6.68,20.71Z" transform="translate(-11.42 -10.61)"/><path class="cls-4" d="M159.19,288.51l27.38-4.46V327.9h18.51V286h27.7V408.23H205.59v-47H187.18v49.06l-27.86-3.95c.75-2.75,2.15-5.51,2.16-8.27q.22-50.69,0-101.38C161.46,294,160,291.25,159.19,288.51Z" transform="translate(-11.42 -10.61)"/><path class="cls-5" d="M110.72,410.07c-12.41-1.06-22.66-1.13-32.57-3C61.63,404,52.33,395,51.81,379c-1-30.65-.29-61.36-.29-92.78H79.09c0,23.64,0,47,0,70.4,0,20.44.06,20.8,20.4,21.07,8.21.1,11.85,2.83,11.31,11.22C110.4,395.17,110.72,401.52,110.72,410.07Z" transform="translate(-11.42 -10.61)"/><path class="cls-6" d="M36.4,408.75h-25V286h25ZM14.6,291.42l-1.16-.1V403.64H14.6Zm20.07,0-1.17-.13v112.4h1.17Z" transform="translate(-11.42 -10.61)"/><path class="cls-7" d="M159.19,288.51c.8,2.74,2.27,5.48,2.29,8.22q.22,50.68,0,101.38c0,2.76-1.41,5.52-2.16,8.27Q159.25,347.44,159.19,288.51Z" transform="translate(-11.42 -10.61)"/><path class="cls-8" d="M272.13,10.61c-7.46.8-14.93,2.34-22.38,2.23-19.05-.28-38.1-1.3-57.14-2Z" transform="translate(-11.42 -10.61)"/><path class="cls-9" d="M383.51,314.28c.71,2.54,1.41,5.08,2.12,7.62l-1.49.44-1.32-3.28Z" transform="translate(-11.42 -10.61)"/><path class="cls-10" d="M242.25,157.28c-10.33,4.47-19.66,9.37-29.55,12.49-6.5,2-15.36,4.56-17.79-6-2.19-9.59,7.27-19.62,16.17-21.43s17.37-5.77,25.29-10.15c2-1.14,3.07-8.77,1.38-10.92-2.22-2.85-9.09-5.66-11.35-4.27-11.4,7-16.05-1.91-26.56-10.18,11.72-4.87,20.46-9,29.58-12.11,7.94-2.68,14.14-6.19,9.25-15.28-1.61-3-7.26-3.84-11.12-5.54-7.15-3.15-14.33-6.2-21.5-9.3,6.36-5,12-11.73,19.21-14.58,17-6.72,35-9,52.73-3.18,4.63,1.52,11.08,7.38,11,11.15-.1,6.29-1.78,14.43-12.36,14.77-3.62.11-7.06,5.69-10.58,8.77,3.26,2.68,6.46,5.44,9.79,8,3.83,3,10.25,5.25,11,8.76s-3.36,9.16-6.81,12.18c-14.58,12.76-14.76,18.12.3,30.48,8,6.55,7.42,14.41-2.25,16.84-11.06,2.78-13.09,9.05-11.58,18.82.71,4.62.07,9.43.55,14.1,1.07,10.6-4.84,13.14-13.93,13.35-10.2.24-9-6.59-9.05-13.06q0-15.41-.3-30.81C243.75,159.46,243,158.74,242.25,157.28Z" transform="translate(-11.42 -10.61)"/><path class="cls-11" d="M349.4,134.64c-15.14,0-26.74-.67-38.23.2-9.89.75-13.41-3.46-13-12.46.67-14.09.3-28.39,2.8-42.16,1-5.72,7.81-14,12.85-14.73a355.37,355.37,0,0,1,57.06-2.65c4,.1,11.42,8.48,11,12.44-1.43,14.63-4.09,29.5-9,43.32C368.94,130,360.2,138.31,349.4,134.64ZM348.25,82,348,83.4c-5.56.3-11.19.21-16.66,1.09-2.54.41-6.17,2.16-6.95,4.21-6.19,16.25,6.39,31.64,23.34,28.54,6.22-1.14,12.64-2.94,18.1-6,8.54-4.76,10.67-20.66,2.94-25.29C363.19,82.58,355.19,83.16,348.25,82Z" transform="translate(-11.42 -10.61)"/><path class="cls-12" d="M120.92,74.29c6.77,2,15.94,5.14,25.35,7.17,5.76,1.24,12,0,17.82,1.17,5.27,1.05,14.4,3.58,14.51,5.81.33,6.94-.67,16.44-5.16,20.46-5.53,4.94-16,8.83-22.75,7.08-20-5.21-39.37-6.42-59.24-.72-3.21.92-6.79.6-10.2.73-22.83.84-28-5.92-20.24-27.2,1-2.7,4.05-6.07,6.6-6.52C84.33,79.35,101.18,77.15,120.92,74.29Z" transform="translate(-11.42 -10.61)"/><path class="cls-13" d="M251.76,383.26q0-46.08,0-92.17,0,46.16,0,92.27Z" transform="translate(-11.42 -10.61)"/><path class="cls-8" d="M14.6,291.42V403.63H13.44V291.32Z" transform="translate(-11.42 -10.61)"/><path class="cls-8" d="M34.67,291.44V403.7H33.5V291.31Z" transform="translate(-11.42 -10.61)"/><path class="cls-14" d="M348.25,82c6.94,1.18,14.94.6,20.56,4,7.73,4.63,5.6,20.53-2.94,25.29-5.46,3-11.88,4.85-18.1,6-16.95,3.1-29.53-12.29-23.34-28.54.78-2,4.41-3.8,6.95-4.21,5.47-.88,11.1-.79,16.66-1.09Z" transform="translate(-11.42 -10.61)"/></svg>